<svg width="692" height="124" viewBox="0 0 692 124" fill="none" xmlns="http://www.w3.org/2000/svg">
<path d="M363.356 92.5581C356.098 85.1965 352.451 76.122 352.451 65.3346C352.451 54.5472 356.098 45.4727 363.356 38.1111C370.614 30.7494 379.513 27.0686 390.017 27.0686C400.52 27.0686 409.419 30.7494 416.677 38.1111C423.972 45.4727 427.582 54.5472 427.582 65.3346V69.4892C427.582 69.9994 427.181 70.4003 426.67 70.4003H367.587C368.754 76.45 371.38 81.2241 375.537 84.6863C379.695 88.1484 384.509 89.8977 389.98 89.8977C396.727 89.8977 402.125 88.2213 406.173 84.832C407.888 83.5565 409.383 82.0259 410.659 80.1672C410.842 79.9121 411.097 79.7663 411.389 79.7663H425.43C426.087 79.7663 426.525 80.4588 426.269 81.0419C424.336 85.1965 421.966 88.768 419.194 91.7564C411.279 99.6647 401.542 103.601 389.98 103.601C379.513 103.601 370.614 99.9198 363.356 92.5581ZM368.353 58.1187H411.717C410.842 53.3081 408.544 49.2264 404.86 45.8372C401.14 42.4843 396.217 40.7715 390.053 40.7715C384.838 40.7715 380.242 42.3386 376.194 45.4727C372.109 48.6069 369.483 52.8344 368.353 58.1187Z" fill="#F5F5F5"/>
<path d="M499.868 92.5581C492.574 85.1965 488.963 76.122 488.963 65.3346C488.963 54.5472 492.61 45.4727 499.868 38.1111C507.126 30.7494 516.025 27.0686 526.529 27.0686C537.033 27.0686 545.932 30.7494 553.19 38.1111C560.447 45.4727 564.095 54.5472 564.095 65.3346V69.4892C564.095 69.9994 563.693 70.4003 563.183 70.4003H504.099C505.266 76.45 507.892 81.2241 512.05 84.6863C516.208 88.1484 521.022 89.8977 526.492 89.8977C533.24 89.8977 538.638 88.2213 542.686 84.832C544.4 83.5565 545.895 82.0259 547.172 80.1672C547.354 79.9121 547.609 79.7663 547.901 79.7663H561.943C562.599 79.7663 563.037 80.4588 562.782 81.0419C560.849 85.1965 558.478 88.768 555.706 91.7564C547.792 99.6647 538.09 103.601 526.492 103.601C516.025 103.601 507.126 99.9198 499.868 92.5581ZM504.828 58.1187H548.193C547.318 53.3081 545.02 49.2264 541.336 45.8372C537.616 42.4843 532.693 40.7715 526.529 40.7715C521.314 40.7715 516.682 42.3386 512.67 45.4727C508.622 48.6069 505.996 52.8344 504.828 58.1187Z" fill="#F5F5F5"/>
<path d="M625.841 92.5581C618.401 85.1965 614.68 76.122 614.68 65.3346C614.68 54.5472 618.401 45.4727 625.841 38.1111C633.281 30.7494 642.435 27.0686 653.34 27.0686C664.245 27.0686 673.399 30.7494 680.84 38.1111C688.28 45.4727 692 54.5472 692 65.3346C692 76.122 688.28 85.1965 680.84 92.5581C673.399 99.9198 664.245 103.601 653.34 103.601C642.472 103.601 633.281 99.9198 625.841 92.5581ZM637.001 47.5136C632.807 51.9962 630.728 57.9365 630.728 65.3346C630.728 72.7327 632.807 78.7095 637.001 83.1556C641.195 87.6382 646.629 89.8613 653.34 89.8613C660.051 89.8613 665.485 87.6382 669.679 83.1556C673.874 78.673 675.953 72.7327 675.953 65.3346C675.953 57.9365 673.874 51.9597 669.679 47.5136C665.485 43.031 660.051 40.8079 653.34 40.8079C646.629 40.7715 641.195 43.031 637.001 47.5136Z" fill="#F5F5F5"/>
<path d="M330.313 29.1459L314.557 78.3815L298.801 29.1459C298.692 28.7815 298.327 28.5264 297.926 28.5264H295.008H283.374H280.456C280.055 28.5264 279.727 28.7815 279.581 29.1459L264.336 77.8348L249.127 29.1459C249.018 28.7815 248.653 28.5264 248.252 28.5264H234.94C234.32 28.5264 233.882 29.1095 234.065 29.6926L256.531 101.56C256.64 101.924 257.005 102.179 257.406 102.179H271.302C271.703 102.179 272.031 101.924 272.177 101.56L289.282 46.9305L306.752 101.56C306.862 101.924 307.226 102.179 307.628 102.179H321.523C321.924 102.179 322.253 101.924 322.399 101.56L345.376 29.6926C345.558 29.1095 345.12 28.5264 344.5 28.5264H331.152C330.75 28.4899 330.422 28.745 330.313 29.1459Z" fill="#F5F5F5"/>
<path d="M592.251 84.176V8.91961C592.251 8.4094 591.85 8.00852 591.339 8.00852H577.918C577.407 8.00852 577.006 8.4094 577.006 8.91961V89.0231C577.006 89.2782 577.115 89.4968 577.261 89.6791L589.735 102.143C589.917 102.325 590.136 102.398 590.391 102.398H612.165C612.675 102.398 613.076 101.997 613.076 101.487V89.5697C613.076 89.0595 612.675 88.6586 612.165 88.6586H596.737C594.293 88.6951 592.251 86.6542 592.251 84.176Z" fill="#F5F5F5"/>
<path d="M458.729 85.16V43.1403C458.729 42.6301 459.13 42.2292 459.641 42.2292H478.679C479.189 42.2292 479.591 41.8284 479.591 41.3181V29.401C479.591 28.8908 479.189 28.4899 478.679 28.4899H459.641C459.13 28.4899 458.729 28.0891 458.729 27.5788V8.91961C458.729 8.4094 458.328 8.00852 457.817 8.00852H444.396C443.885 8.00852 443.484 8.4094 443.484 8.91961V27.5788C443.484 28.0891 443.083 28.4899 442.572 28.4899H437.32C436.81 28.4899 436.408 28.8908 436.408 29.401V41.3181C436.408 41.8284 436.81 42.2292 437.32 42.2292H442.572C443.083 42.2292 443.484 42.6301 443.484 43.1403V89.0595C443.484 89.3146 443.593 89.5333 443.739 89.7155L456.212 102.179C456.395 102.362 456.614 102.434 456.869 102.434H478.642C479.153 102.434 479.554 102.034 479.554 101.523V89.6062C479.554 89.096 479.153 88.6951 478.642 88.6951H462.23C460.297 88.6951 458.729 87.0916 458.729 85.16Z" fill="#F5F5F5"/>
<path d="M65.7125 21.1647L125.161 80.5681L162.325 43.4319L140.078 21.1647L160.429 0.792653C161.487 -0.264217 163.201 -0.264217 164.258 0.792653L204.997 41.5004C206.055 42.5572 206.055 44.2701 204.997 45.327L127.094 123.207C126.036 124.264 124.322 124.264 123.264 123.207L43.4284 43.4319L65.7125 21.1647Z" fill="#009090"/>
<path d="M140.078 21.1647L80.6293 80.5681L43.4284 43.4319L65.7125 21.1647L45.3614 0.792653C44.3037 -0.264217 42.5896 -0.264217 41.5319 0.792653L0.793254 41.5368C-0.264418 42.5937 -0.264418 44.3065 0.793254 45.3634L78.6963 123.207C79.754 124.264 81.4681 124.264 82.5258 123.207L162.362 43.4319L140.078 21.1647Z" fill="#00CAB9"/>
</svg>
